<svg width="32" height="33" viewBox="0 0 32 33" fill="none" xmlns="http://www.w3.org/2000/svg">
<path fill-rule="evenodd" clip-rule="evenodd" d="M16.0008 32.0016C7.16379 32.0016 0 24.8378 0 16.0008C0 7.16379 7.16379 0 16.0008 0C16.3852 0 16.7696 0.20001 16.9696 0.600029L19.9322 6.52532L26.2075 4.43147C27.0513 4.14395 27.8576 4.95024 27.5763 5.80028L25.4825 12.0756L31.4015 15.032C32.2016 15.432 32.2016 16.5696 31.389 16.9758L25.47 19.9322L27.5638 26.2075C27.8514 27.0513 27.0451 27.8576 26.195 27.5763L19.9197 25.4825L16.9633 31.4015C16.7644 31.7994 16.3831 31.9994 16.0008 32.0016ZM16.0008 23.9965C18.0493 23.9965 20.0979 23.2168 21.6573 21.6573C24.7762 18.5384 24.7762 13.4632 21.6573 10.3443C20.0979 8.7848 18.0493 8.00508 16.0008 8.00508V10.0005C19.3072 10.0005 22.0011 12.6944 22.0011 16.0008C22.0011 19.3072 19.3072 22.0011 16.0008 22.0011V23.9965Z" fill="white"/>
</svg>
